HIERARCHY
ROOT Hips
{
	OFFSET 0.000000 0.000000 0.000000
	CHANNELS 6 Xposition Yposition Zposition Xrotation Yrotation Zrotation
	JOINT LeftUpLeg_virtual
	{
		OFFSET 0.000000 0.000000 0.000000
		CHANNELS 3 Xrotation Yrotation Zrotation
		JOINT LeftUpLeg
		{
			OFFSET 10.205400 -3.823500 0.155100
			CHANNELS 3 Xrotation Yrotation Zrotation
			JOINT LeftLeg
			{
				OFFSET 0.708757 -12.982077 0.567790
				CHANNELS 3 Xrotation Yrotation Zrotation
				JOINT LeftFoot
				{
					OFFSET -0.708756 -10.717838 -2.184338
					CHANNELS 3 Xrotation Yrotation Zrotation
					JOINT LeftToeBase
					{
						OFFSET 0.108149 -7.191104 7.560241
						CHANNELS 3 Xrotation Yrotation Zrotation
						JOINT LeftToe_End
						{
							OFFSET 0.070230 0.081724 4.490308
							CHANNELS 3 Xrotation Yrotation Zrotation
							End Site
							{
								OFFSET 0 0 0
							}
						}
					}
				}
			}
		}
	}
	JOINT RightUpLeg_virtual
	{
		OFFSET 0.000000 0.000000 0.000000
		CHANNELS 3 Xrotation Yrotation Zrotation
		JOINT RightUpLeg
		{
			OFFSET -10.205400 -3.823500 0.005500
			CHANNELS 3 Xrotation Yrotation Zrotation
			JOINT RightLeg
			{
				OFFSET -0.708756 -12.982134 0.610632
				CHANNELS 3 Xrotation Yrotation Zrotation
				JOINT RightFoot
				{
					OFFSET 0.708754 -10.717769 -1.945823
					CHANNELS 3 Xrotation Yrotation Zrotation
					JOINT RightToeBase
					{
						OFFSET -0.108140 -7.191069 7.372968
						CHANNELS 3 Xrotation Yrotation Zrotation
						JOINT RightToe_End
						{
							OFFSET -0.070227 0.081735 4.479403
							CHANNELS 3 Xrotation Yrotation Zrotation
							End Site
							{
								OFFSET 0 0 0
							}
						}
					}
				}
			}
		}
	}
	JOINT Spine_virtual
	{
		OFFSET 0.000000 0.000000 0.000000
		CHANNELS 3 Xrotation Yrotation Zrotation
		JOINT Spine
		{
			OFFSET 0.000000 6.876099 0.125700
			CHANNELS 3 Xrotation Yrotation Zrotation
			JOINT Spine1
			{
				OFFSET 0.000000 5.730043 0.104720
				CHANNELS 3 Xrotation Yrotation Zrotation
				JOINT Spine1_split
				{
					OFFSET 0.000000 5.730043 0.104720
					CHANNELS 3 Xrotation Yrotation Zrotation
					JOINT Spine2
					{
						OFFSET 0.000000 5.730043 0.104720
						CHANNELS 3 Xrotation Yrotation Zrotation
						JOINT Neck_virtual
						{
							OFFSET 0.000000 0.000000 0.000000
							CHANNELS 3 Xrotation Yrotation Zrotation
							JOINT Neck
							{
								OFFSET 0.000000 10.314075 0.188496
								CHANNELS 3 Xrotation Yrotation Zrotation
								JOINT Head
								{
									OFFSET 0.000000 7.643700 -2.377400
									CHANNELS 3 Xrotation Yrotation Zrotation
									JOINT HeadTop_End
									{
										OFFSET 0.000000 43.788605 -13.619600
										CHANNELS 3 Xrotation Yrotation Zrotation
										End Site
										{
											OFFSET 0 0 0
										}
									}
								}
							}
						}
						JOINT LeftShoulder_virtual
						{
							OFFSET 0.000000 0.000000 0.000000
							CHANNELS 3 Xrotation Yrotation Zrotation
							JOINT LeftShoulder
							{
								OFFSET 2.196100 4.412489 0.087492
								CHANNELS 3 Xrotation Yrotation Zrotation
								JOINT LeftShoulder_split
								{
									OFFSET 2.196100 4.412489 0.087492
									CHANNELS 3 Xrotation Yrotation Zrotation
									JOINT LeftArm
									{
										OFFSET 8.771219 -2.981674 -0.026999
										CHANNELS 3 Xrotation Yrotation Zrotation
										JOINT LeftForeArm
										{
											OFFSET 8.512804 0.000000 -0.000000
											CHANNELS 3 Xrotation Yrotation Zrotation
											JOINT LeftHand
											{
												OFFSET 18.484802 0.000000 -0.000000
												CHANNELS 3 Xrotation Yrotation Zrotation
												End Site
												{
													OFFSET 0 0 0
												}
											}
										}
									}
								}
							}
						}
						JOINT RightShoulder_virtual
						{
							OFFSET 0.000000 0.000000 0.000000
							CHANNELS 3 Xrotation Yrotation Zrotation
							JOINT RightShoulder
							{
								OFFSET -2.196100 4.412496 0.070690
								CHANNELS 3 Xrotation Yrotation Zrotation
								JOINT RightShoulder_split
								{
									OFFSET -2.196100 4.412496 0.070690
									CHANNELS 3 Xrotation Yrotation Zrotation
									JOINT RightArm
									{
										OFFSET -8.771282 -2.981682 -0.094208
										CHANNELS 3 Xrotation Yrotation Zrotation
										JOINT RightForeArm
										{
											OFFSET -8.494598 0.000000 0.000000
											CHANNELS 3 Xrotation Yrotation Zrotation
											JOINT RightHand
											{
												OFFSET -18.483803 0.000000 0.000001
												CHANNELS 3 Xrotation Yrotation Zrotation
												End Site
												{
													OFFSET 0 0 0
												}
											}
										}
									}
								}
							}
						}
					}
				}
			}
		}
	}
}
MOTION
Frames: 11
Frame Time: 0.03333333
0.883145 29.606070 10.992326 0.000000 0.000000 0.000000 6.945241 -51.212219 4.712797 -3.744863 17.817751 -7.840468 48.388502 -0.798889 -13.723229 -41.272593 -12.171126 18.328263 -2.195604 -8.019089 -5.706410 0.000000 0.000000 0.000000 6.869975 -48.801271 4.662119 -45.253934 -6.177940 5.084519 30.116701 10.739025 -0.108981 -4.499757 1.621319 7.875099 3.861468 -2.680091 -1.790923 0.000000 0.000000 0.000000 4.520022 -46.700298 4.035677 15.504152 -6.344725 2.684963 5.729148 -5.749530 2.436807 -0.222591 -2.086245 0.988176 0.000000 0.000000 0.000000 -2.789819 -5.144114 1.586568 1.725738 39.545621 -10.610334 -0.230581 27.963020 -7.481204 0.000000 0.000000 0.000000 -2.085951 -6.443206 1.779064 0.993748 -2.366037 -3.185572 -3.018961 2.182932 -2.032049 -0.480190 -2.111786 -27.554457 -0.561772 -26.270562 -1.767484 0.000000 0.000000 0.000000 -3.717383 -6.022817 2.855356 9.717724 -12.263390 3.284946 -0.294452 1.431796 -1.147776 2.300078 5.836267 77.581947 -6.394372 11.254384 6.087761 0.000000 0.000000 0.000000 
1.651191 29.714403 10.132793 0.000000 0.000000 0.000000 7.826314 -55.748660 5.820516 -4.021158 16.343779 -9.913014 46.309707 -1.031460 -13.240078 -41.160206 -13.460675 19.880080 -0.696718 -8.684487 -4.590641 0.000000 0.000000 0.000000 6.546574 -51.601021 5.034037 -42.877896 -5.845908 3.573493 30.952163 9.951378 -0.787815 -4.616025 2.175211 8.359674 6.153368 -2.397359 -0.806778 0.000000 0.000000 0.000000 3.924126 -50.017356 4.268832 15.451496 -6.180765 2.118042 4.904784 -5.224509 2.452557 -0.294580 -1.782178 0.714625 0.000000 0.000000 0.000000 -3.878166 -4.516994 1.606478 2.222782 39.955920 -10.925305 0.465472 27.885905 -8.038225 0.000000 0.000000 0.000000 -2.908722 -5.828403 1.947269 0.843635 -1.408238 -3.109385 -1.714517 3.471497 -2.394850 -5.536115 -3.667893 -27.876181 -0.044270 -30.850236 -1.734659 0.000000 0.000000 0.000000 -4.596836 -5.475645 2.824813 10.135539 -11.270645 3.436995 -1.086669 2.035642 -1.631714 3.807011 11.427568 74.192370 -4.917226 14.937875 7.558715 0.000000 0.000000 0.000000 
2.286534 29.798319 9.277408 0.000000 0.000000 0.000000 9.462561 -60.049760 7.614335 -5.782618 14.863241 -11.314340 46.073755 -0.586134 -11.764120 -40.223022 -13.743814 19.555694 -0.171998 -9.385905 -3.597773 0.000000 0.000000 0.000000 6.054485 -54.415912 5.332491 -40.866210 -4.893659 1.938273 32.278972 9.597067 -1.372450 -2.177682 2.823462 10.102587 6.772588 -2.080662 0.230143 0.000000 0.000000 0.000000 3.353407 -53.162354 4.396971 15.686795 -5.813856 1.857185 4.194756 -4.591990 2.406671 -0.156776 -1.703706 0.706745 0.000000 0.000000 0.000000 -4.809169 -3.860384 1.591705 3.480554 40.186439 -11.698357 0.724965 27.461718 -8.355820 0.000000 0.000000 0.000000 -3.473221 -5.129315 1.998373 0.788422 -0.621462 -3.400459 -0.186434 4.149321 -2.333910 -8.922364 -4.992709 -28.463818 -0.202710 -34.581869 -1.981865 0.000000 0.000000 0.000000 -5.174352 -4.810826 2.685164 10.441203 -9.963015 4.193558 -1.890970 2.177333 -2.065926 5.778525 15.051813 70.130777 -2.982928 19.582477 8.758199 0.000000 0.000000 0.000000 
2.766936 29.937229 8.411923 0.000000 0.000000 0.000000 10.912881 -63.759809 9.398615 -7.803990 13.445904 -12.815215 45.712448 0.724580 -9.505649 -39.540621 -12.691412 17.407753 1.897123 -10.105338 -2.556034 0.000000 0.000000 0.000000 5.185425 -57.316031 5.308120 -39.097523 -3.665731 0.112382 33.423951 9.395313 -1.902803 0.884186 3.508722 12.193113 6.534393 -1.677307 1.183339 0.000000 0.000000 0.000000 2.321654 -55.921125 4.025182 16.093165 -5.242528 1.830275 3.566478 -3.858038 2.229749 -0.178949 -2.200768 0.786165 0.000000 0.000000 0.000000 -5.475348 -3.171101 1.492723 5.382233 40.247918 -12.743883 0.762107 26.789378 -8.573502 0.000000 0.000000 0.000000 -3.815586 -4.367906 1.870954 0.781166 -0.036564 -4.106897 1.206325 4.224134 -2.043973 -10.716796 -6.295841 -29.065505 -1.123425 -38.036483 -2.574764 0.000000 0.000000 0.000000 -5.455120 -4.068797 2.377004 10.563093 -8.451966 5.381962 -2.473214 1.947648 -2.816862 7.251889 16.388124 65.664155 -0.830345 24.353830 9.452539 0.000000 0.000000 0.000000 
3.101851 30.151560 7.536585 0.000000 0.000000 0.000000 11.263749 -66.524157 10.196380 -8.972200 12.192000 -14.620100 43.592033 2.598775 -6.868143 -39.622873 -10.938627 14.331502 2.827354 -10.907570 -0.307278 0.000000 0.000000 0.000000 4.256533 -60.014413 5.005928 -37.464404 -2.413673 -1.913349 34.284961 8.971848 -2.483063 2.757711 3.924924 13.418238 6.595766 -1.125594 1.853391 0.000000 0.000000 0.000000 1.035395 -58.216223 3.137856 16.513688 -4.548201 1.934159 3.033710 -3.089955 1.887682 -0.202944 -2.861649 0.903237 0.000000 0.000000 0.000000 -5.740519 -2.462264 1.312821 7.708479 40.102240 -13.825409 0.739079 26.069145 -8.842672 0.000000 0.000000 0.000000 -3.980327 -3.592928 1.585241 0.806876 0.439907 -5.132625 2.225486 3.838799 -1.552668 -11.021158 -7.331512 -29.498388 -2.700620 -42.207127 -3.546889 0.000000 0.000000 0.000000 -5.531993 -3.306122 1.931662 10.501054 -6.921315 6.740671 -2.732174 1.312210 -3.617326 7.579659 16.014562 61.556725 1.366585 28.891222 9.561317 0.000000 0.000000 0.000000 
3.324358 30.410145 6.667443 0.000000 0.000000 0.000000 10.402282 -68.108748 9.668669 -8.868513 11.314338 -16.132234 39.742982 4.935202 -4.310891 -40.299465 -9.530207 12.560796 1.780857 -12.005834 3.232380 0.000000 0.000000 0.000000 3.374616 -62.224355 4.411994 -36.036064 -1.209519 -4.247489 35.225707 8.414897 -3.098392 3.226223 4.003211 13.770017 7.092801 -0.404599 2.096975 0.000000 0.000000 0.000000 -0.393812 -59.991751 1.891937 16.699539 -3.799227 2.030565 2.627704 -2.337627 1.424637 -0.435667 -3.964027 0.943327 0.000000 0.000000 0.000000 -5.665742 -1.788493 1.098084 10.122067 39.797982 -14.681382 0.741750 25.621208 -9.268765 0.000000 0.000000 0.000000 -4.069202 -2.831683 1.215246 0.856168 0.997152 -6.095809 3.018965 3.583263 -1.015774 -10.594785 -7.897413 -29.924647 -4.539815 -46.970528 -4.782641 0.000000 0.000000 0.000000 -5.487286 -2.591352 1.433457 10.281464 -5.547395 8.028269 -2.647901 0.547819 -4.179748 6.791251 14.943715 58.330307 3.408931 33.011810 9.157539 0.000000 0.000000 0.000000 
3.456700 30.697588 5.757975 0.000000 0.000000 0.000000 8.797319 -68.706355 8.148610 -9.148752 10.790654 -16.619484 36.850257 6.891310 -2.336866 -39.314535 -8.453065 11.652632 2.592033 -13.176548 5.516265 0.000000 0.000000 0.000000 2.846490 -63.877493 3.808516 -34.527928 -0.048405 -6.887581 36.185762 8.111130 -3.820966 2.598046 4.202144 14.329996 6.909146 0.324087 1.869120 0.000000 0.000000 0.000000 -1.537581 -61.147180 0.692304 16.570010 -3.060269 2.021032 2.432320 -1.650822 0.939515 -0.650969 -5.024616 0.789515 0.000000 0.000000 0.000000 -5.377581 -1.203244 0.909159 12.218035 39.378930 -15.107595 0.806024 25.755014 -9.891214 0.000000 0.000000 0.000000 -4.139303 -2.156056 0.828489 0.935701 1.692313 -6.694619 3.399523 3.714575 -0.869892 -9.837498 -7.801226 -30.608472 -6.135511 -51.738710 -6.032482 0.000000 0.000000 0.000000 -5.428358 -1.997793 1.009217 9.969118 -4.464210 8.988198 -2.145536 -0.252969 -4.323232 5.354940 14.168687 56.161671 5.095945 36.503092 8.393525 0.000000 0.000000 0.000000 
3.589073 30.955059 4.873910 0.000000 0.000000 0.000000 7.608320 -68.781378 6.789768 -10.112467 10.225277 -15.948838 35.916519 8.191964 -1.281518 -36.154514 -7.772389 11.378503 4.192870 -14.354479 7.013826 0.000000 0.000000 0.000000 2.895468 -64.802875 3.578156 -32.434615 0.980113 -9.528935 37.020670 8.165078 -4.724923 1.642929 4.446414 15.594106 5.055143 0.898308 1.406825 0.000000 0.000000 0.000000 -1.692556 -61.717282 0.202337 16.172681 -2.389715 1.903006 2.472362 -1.067894 0.499717 -0.555629 -5.646150 0.598432 0.000000 0.000000 0.000000 -5.001246 -0.740937 0.772206 13.766290 38.824363 -15.054145 1.011751 26.412367 -10.598679 0.000000 0.000000 0.000000 -4.224458 -1.581352 0.481694 1.052933 2.652262 -6.853222 3.605338 3.916935 -0.884718 -8.558940 -7.101245 -31.801272 -7.042276 -55.643683 -6.919496 0.000000 0.000000 0.000000 -5.375139 -1.514394 0.725238 9.623827 -3.665398 9.421037 -1.455932 -0.975963 -4.353045 3.880072 13.976613 55.109166 6.392020 39.265613 7.328629 0.000000 0.000000 0.000000 
3.732509 31.157993 4.011954 0.000000 0.000000 0.000000 7.591835 -68.696308 6.454262 -11.350347 9.430468 -14.480191 36.398225 9.339358 -1.201327 -32.721503 -7.425328 11.921208 5.066555 -15.503993 8.083740 0.000000 0.000000 0.000000 3.332866 -65.041685 3.760755 -29.271100 1.519197 -12.041131 36.906087 8.399888 -5.710153 0.527667 4.398566 17.179452 2.385108 1.245477 1.113633 0.000000 0.000000 0.000000 -1.198108 -61.711743 0.364051 15.623168 -1.820074 1.725369 2.714926 -0.581607 0.155312 -0.504651 -5.773763 0.547909 0.000000 0.000000 0.000000 -4.726365 -0.424210 0.681926 14.528881 38.121372 -14.578381 1.358768 27.327978 -11.210097 0.000000 0.000000 0.000000 -4.324466 -1.115822 0.178347 1.147834 3.861106 -6.598765 3.641997 3.968433 -1.152285 -7.020190 -6.224301 -33.645191 -6.920903 -57.934081 -7.003950 0.000000 0.000000 0.000000 -5.306617 -1.129980 0.565737 9.288154 -3.081192 9.198731 -0.945706 -1.416120 -4.267371 2.889827 14.283826 54.565469 7.242546 41.174907 6.052836 0.000000 0.000000 0.000000 
3.883361 31.267365 3.190189 0.000000 0.000000 0.000000 8.514248 -68.563160 7.062890 -12.534516 8.622672 -12.799538 37.923584 10.681204 -1.885986 -30.681647 -7.186265 12.924942 5.642861 -16.480915 8.325636 0.000000 0.000000 0.000000 4.125707 -64.811501 4.343755 -25.172915 1.281955 -14.232087 35.278053 8.546115 -6.561044 -1.012393 3.755049 18.313501 0.508914 1.386149 1.274855 0.000000 0.000000 0.000000 -0.179585 -61.513292 1.003634 15.168737 -1.390265 1.558330 3.105665 -0.192267 -0.125405 -0.368698 -5.334186 0.555513 0.000000 0.000000 0.000000 -4.572786 -0.227562 0.576965 14.500825 37.299554 -13.825822 1.854515 28.247171 -11.545212 0.000000 0.000000 0.000000 -4.415156 -0.760618 -0.105378 1.186379 5.174148 -6.123071 3.689312 3.554879 -1.542504 -5.155683 -5.533532 -35.889700 -5.972661 -59.000936 -6.360907 0.000000 0.000000 0.000000 -5.219774 -0.827011 0.466159 8.990020 -2.622729 8.416964 -0.724347 -1.565273 -4.139786 2.664892 14.747888 54.201267 7.733247 42.524095 4.571905 0.000000 0.000000 0.000000 
3.981981 31.284620 2.497511 0.000000 0.000000 0.000000 9.883045 -68.374893 8.151970 -13.322984 7.994333 -11.211787 40.026094 11.971597 -2.843292 -30.184074 -6.960361 13.441716 6.533328 -17.204770 8.000205 0.000000 0.000000 0.000000 4.830696 -64.208990 4.866666 -20.750719 0.208578 -16.060766 32.285560 8.531273 -7.061619 -2.692080 2.543951 18.648616 0.115050 1.432323 1.887099 0.000000 0.000000 0.000000 0.859062 -61.351198 1.686122 14.942506 -1.133960 1.421465 3.538087 0.116725 -0.410669 -0.272720 -4.637259 0.567602 0.000000 0.000000 0.000000 -4.529043 -0.100060 0.382788 13.793025 36.380897 -12.943044 2.463496 28.964353 -11.468940 0.000000 0.000000 0.000000 -4.490101 -0.487853 -0.393531 1.143487 6.382407 -5.587912 3.927832 2.877791 -1.596768 -3.012379 -5.095403 -38.118937 -4.501385 -59.141126 -5.237066 0.000000 0.000000 0.000000 -5.099211 -0.563334 0.325065 8.737295 -2.169261 7.360860 -0.959705 -1.275120 -3.935627 3.314355 14.925177 53.810160 8.056086 43.818187 2.900710 0.000000 0.000000 0.000000 
